<?xml version="1.0" encoding="utf-8"?>
<!-- Generator: Adobe Illustrator 24.0.0, SVG Export Plug-In . SVG Version: 6.00 Build 0)  -->
<svg version="1.1" id="Layer_1" xmlns="http://www.w3.org/2000/svg" xmlns:xlink="http://www.w3.org/1999/xlink" x="0px" y="0px"
	 viewBox="0 0 256 256" style="enable-background:new 0 0 256 256;" xml:space="preserve">
<style type="text/css">
	.st0{fill:#FFB69F;}
	.st1{fill:#72C2E9;}
	.st2{fill:#C2E5FF;}
	.st3{fill:#FC5D3D;}
	.st4{fill:#AFAFAF;}
	.st5{fill:#FFCBC3;}
	.st6{fill:#F0C020;}
	.st7{fill:#F8E5B0;}
	.st8{fill:#EFEFEF;}
	.st9{fill:#EEC21E;}
	.st10{fill:#FFFFFF;}
	.st11{fill:#F1BF21;}
	.st12{fill:#E8A61E;}
	.st13{fill:#7D7B79;}
	.st14{fill:#B34F33;}
	.st15{fill:#F8E5B2;}
	.st16{fill:#C5E5FE;}
	.st17{fill:#4C4944;}
	.st18{fill:#4BA5C8;}
	.st19{fill:#AFAEAF;}
	.st20{fill:#CF941C;}
	.st21{fill:#7C7B7A;}
	.st22{fill:#FAE0E1;}
	.st23{fill:#13BF6D;}
	.st24{fill:#76FFBB;}
	.st25{fill:#F2E1D7;}
	.st26{fill:#878787;}
	.st27{fill:#F9E5AF;}
	.st28{fill:#E8A61F;}
	.st29{fill:none;stroke:#000000;stroke-width:5;stroke-linecap:round;stroke-linejoin:round;stroke-miterlimit:10;}
	.st30{fill:#EFEFF0;}
	.st31{fill:#E8A61B;}
	.st32{fill:#EFEFEE;}
	.st33{fill:#4C4945;}
	.st34{fill:#EA8F7D;}
	.st35{fill:#D6C0B3;}
	.st36{fill:#EEC120;}
</style>
<g>
</g>
<g>
	<path class="st1" d="M219.72,106.78l-41.11,41.11c-3.9,3.91-10.23,3.91-14.14,0l-1.83-1.83l8.57-18.93l-42.34-42.34l-18.94,8.56
		l-1.82-1.82c-3.91-3.91-3.91-10.24,0-14.14l41.11-41.11c3.9-3.91,10.24-3.91,14.14,0l3.86,3.86l48.7,48.7l3.8,3.8
		C223.63,96.55,223.63,102.88,219.72,106.78z"/>
	<path class="st6" d="M81.4,201.29L54.71,174.6c-2.05-2.05-5.38-2.05-7.43,0l-5.88,5.88l-9,9.01L6.5,215.38l34.12,34.12l25.9-25.89
		l9-9.01l5.88-5.88C83.45,206.67,83.45,203.34,81.4,201.29z"/>
	<path class="st27" d="M38.855,238.54c-0.976-0.977-0.976-2.56,0-3.535l3.665-3.664c0.977-0.977,2.559-0.977,3.536,0
		c0.976,0.977,0.976,2.56,0,3.535l-3.665,3.664C41.414,239.517,39.832,239.517,38.855,238.54z M49.591,227.805
		c-0.977-0.976-0.977-2.559,0-3.535l19.263-19.265l-19.627-19.627c-0.977-0.977-0.977-2.559,0-3.535c0.976-0.977,2.56-0.977,3.535,0
		l21.395,21.395c0.977,0.977,0.977,2.559,0,3.535l-21.031,21.032C52.15,228.781,50.566,228.781,49.591,227.805z"/>
	<path class="st4" d="M129.91,154.41l-28.33-28.32c-4.11-4.11-10.76-4.11-14.86,0l-22.85,22.84l-6.22-6.22
		c-4.1-4.1-10.77-4.1-14.87,0l-21.14,21.14c-4.11,4.11-4.11,10.77,0,14.88l10.76,10.76l9-9.01l-9.18-9.18l18-18l52.48,52.48l-18,18
		l-9.18-9.18l-9,9.01l10.75,10.75c4.11,4.11,10.77,4.11,14.88,0l21.14-21.14c4.1-4.1,4.1-10.77,0-14.87l-6.22-6.22l22.84-22.85
		C134.02,165.18,134.02,158.53,129.91,154.41z M105.5,171.25L84.75,150.5l11.89-11.89l20.75,20.75L105.5,171.25z"/>
	<path class="st2" d="M178.535,135.237c-0.976-0.977-0.976-2.56,0-3.535l2.829-2.828c0.977-0.977,2.559-0.977,3.536,0
		c0.976,0.977,0.976,2.56,0,3.535l-2.829,2.828C181.094,136.214,179.511,136.214,178.535,135.237z M188.435,125.338
		c-0.977-0.976-0.977-2.559,0-3.535l22.094-22.096l-55.004-55.004c-1.375-1.222-1.288-2.855-0.303-3.837
		c0.982-0.981,2.568-0.968,3.542,0.006l56.364,56.364c1.429,1.422,1.345,3.759-0.117,5.06l-23.042,23.042
		C190.994,126.314,189.41,126.314,188.435,125.338z"/>
	<polygon class="st4" points="171.21,127.13 162.64,146.06 109.93,93.35 128.87,84.79 	"/>
	
		<rect x="161.453" y="71.463" transform="matrix(0.7071 -0.7071 0.7071 0.7071 -11.1557 145.3405)" class="st3" width="16.821" height="29.348"/>
	<path class="st17" d="M224.9,79.86l-8.98,8.98l-48.7-48.7l8.92-9.04c2.06-2.05,5.38-2.05,7.44,0l3.6,3.6l34.12,34.12l3.6,3.6
		C226.95,74.48,226.95,77.8,224.9,79.86z"/>
	
		<rect x="198.4" y="13.534" transform="matrix(0.7071 -0.7071 0.7071 0.7071 37.3205 165.4199)" class="st6" width="39.881" height="48.253"/>
	<path class="st27" d="M219.532,57.86l-21.392-21.393c-0.977-0.977-0.977-2.56,0-3.535c0.976-0.977,2.56-0.977,3.535,0L221.3,52.558
		l4.512-4.513c0.977-0.977,2.559-0.977,3.536,0c0.977,0.976,0.977,2.559,0,3.535l-6.28,6.28
		C222.091,58.836,220.509,58.837,219.532,57.86z M232.883,44.509c-0.977-0.977-0.977-2.559,0-3.535l2.121-2.121
		c0.976-0.977,2.56-0.977,3.535,0c0.977,0.977,0.977,2.559,0,3.535l-2.121,2.121C235.443,45.485,233.859,45.485,232.883,44.509z"/>
	<path class="st29" d="M129.91,154.41l-28.33-28.32c-4.11-4.11-10.76-4.11-14.86,0l-22.85,22.84l-6.22-6.22
		c-4.1-4.1-10.77-4.1-14.87,0l-21.14,21.14c-4.11,4.11-4.11,10.77,0,14.88l10.76,10.76l9-9.01l-9.18-9.18l18-18l52.48,52.48l-18,18
		l-9.18-9.18l-9,9.01l10.75,10.75c4.11,4.11,10.77,4.11,14.88,0l21.14-21.14c4.1-4.1,4.1-10.77,0-14.87l-6.22-6.22l22.84-22.85
		C134.02,165.18,134.02,158.53,129.91,154.41z"/>
	<path class="st17" d="M183.576,31.099l41.325,41.325c2.052,2.052,2.052,5.38,0,7.433l-8.98,8.98l-48.758-48.758l8.98-8.98
		C178.196,29.046,181.524,29.046,183.576,31.099z"/>
	<path d="M176.06,104.228l11.895-11.895c0.977-0.977,0.977-2.559,0-3.535l-20.752-20.752c-0.976-0.977-2.56-0.977-3.535,0
		L151.773,79.94c-0.977,0.977-0.977,2.559,0,3.535l20.752,20.752C173.5,105.204,175.084,105.204,176.06,104.228z M165.435,73.349
		l17.216,17.217l-8.359,8.359l-17.216-17.217L165.435,73.349z"/>
	<path d="M126.43,55.53c-0.944,0.923-1.031,2.509,0,3.539c0.979,0.98,2.564,0.968,3.53,0c0.98-0.979,0.98-2.56,0-3.539
		C129.02,54.59,127.37,54.59,126.43,55.53z"/>
	<path d="M204.44,51.96c-0.98,0.97-0.98,2.56,0,3.53c0.98,0.98,2.566,0.964,3.53,0c0.98-0.971,0.98-2.561,0-3.53
		C207.03,51.01,205.38,51.01,204.44,51.96z"/>
	<path d="M4.732,217.145c0.976,0.977,2.56,0.977,3.535,0c10.494-10.494,38.923-38.923,40.779-40.778c1.04-1.041,2.854-1.041,3.897,0
		l26.69,26.69c1.074,1.074,1.074,2.823,0,3.897c-34.835,34.835-8.897,8.897-40.778,40.778c-0.977,0.977-0.977,2.559,0,3.535
		c0.976,0.977,2.56,0.977,3.535,0l24.125-24.125l8.988,8.989c5.091,5.091,13.319,5.091,18.409,0l21.149-21.148
		c5.073-5.072,5.073-13.326,0-18.398l-4.455-4.455l21.072-21.082c5.056-5.042,5.128-13.275,0.002-18.4l-28.328-28.328
		c-5.009-5.01-13.247-5.164-18.399-0.001l-21.083,21.074l-4.456-4.455c-5.072-5.072-13.326-5.072-18.398,0l-21.149,21.149
		c-5.09,5.088-5.091,13.319,0,18.408l8.989,8.99L4.732,213.609C3.756,214.586,3.756,216.168,4.732,217.145z M83.169,210.489
		c3.023-3.023,3.023-7.944,0-10.968l-26.69-26.69c-3.03-3.03-7.937-3.032-10.968,0l-4.106,4.106l-5.648-5.642l14.459-14.459
		l48.948,48.948l-14.459,14.459l-5.641-5.648L83.169,210.489z M23.403,176.96c-3.131-3.132-3.142-8.195,0-11.338l21.149-21.149
		c3.123-3.123,8.205-3.123,11.328,0l6.223,6.223c0.976,0.977,2.559,0.976,3.535,0.001l22.854-22.844
		c3.082-3.089,8.149-3.175,11.326,0.002l28.328,28.328c3.13,3.131,3.143,8.192,0,11.328l-22.841,22.852
		c-0.976,0.977-0.976,2.56,0,3.535l6.223,6.223c3.126,3.127,3.125,8.202,0,11.328l-21.149,21.148c-3.136,3.136-8.202,3.136-11.338,0
		l-8.986-8.986c0.596-0.597,4.877-4.883,5.474-5.479l7.407,7.416c0.976,0.978,2.56,0.978,3.537,0.001l17.996-17.996
		c0.977-0.977,0.977-2.559,0-3.535l-52.483-52.483c-0.976-0.977-2.56-0.977-3.535,0l-17.996,17.995
		c-0.973,0.972-0.98,2.556,0.001,3.536l7.416,7.408c-0.705,0.705,0.178-0.177-5.48,5.475L23.403,176.96z"/>
	<path d="M251.268,38.855c-0.976-0.977-2.56-0.977-3.535,0l-26.433,26.434l-6.259-6.259c-0.94-0.95-2.59-0.95-3.53,0
		c-0.976,0.955-0.997,2.553,0,3.529l8.016,8.023c0.003,0.003,0.004,0.006,0.007,0.009c0.003,0.003,0.006,0.004,0.008,0.007
		l3.589,3.592c1.103,1.104,1.062,2.838,0,3.9l-7.21,7.21c-6.549-6.548-38.656-38.656-45.22-45.22l7.21-7.21
		c1.084-1.083,2.815-1.086,3.9,0l15.55,15.55c0.95,0.95,2.59,0.95,3.54,0c0.978-0.978,0.97-2.56,0-3.53l-10.189-10.188
		l26.433-26.434c0.977-0.977,0.977-2.559,0-3.535c-0.976-0.977-2.56-0.977-3.535,0l-26.433,26.434l-1.836-1.836
		c-3.047-3.048-7.964-3.007-10.97,0l-7.206,7.214l-2.034-2.034c-4.88-4.881-12.796-4.885-17.68,0L133.5,48.46
		c-0.98,0.97-0.98,2.56,0,3.54c0.94,0.939,2.59,0.939,3.53,0l13.96-13.96c2.933-2.933,7.688-2.912,10.6,0l56.37,56.37
		c2.921,2.92,2.923,7.665,0,10.609l-41.11,41.101c-2.926,2.926-7.666,2.944-10.61,0l-0.609-0.609l2.387-5.274l5.471-12.077
		c0.429-0.969,0.187-2.103-0.51-2.801l-42.34-42.34c-0.747-0.737-1.878-0.921-2.8-0.51l-17.36,7.85
		c-3.976-3.973-3.291-8.519-0.6-11.21l13.01-13.01c0.97-0.979,0.97-2.56,0-3.54c-0.94-0.939-2.59-0.939-3.53,0L106.34,75.62
		c-4.876,4.875-4.903,12.765,0,17.67c1.194,1.194,54.088,54.101,56.37,56.37c4.832,4.851,12.756,4.912,17.67,0l41.11-41.11
		c4.916-4.916,4.866-12.836,0-17.68l-2.035-2.035l7.215-7.215c3.029-3.031,3.013-7.948,0-10.96l-1.836-1.836l26.433-26.434
		C252.244,41.414,252.244,39.832,251.268,38.855z M161.852,141.735l-47.593-47.593c1.99-0.9,13.411-6.064,14.069-6.361
		l39.891,39.891L161.852,141.735z"/>
	<path d="M97.58,141.2c0.98-0.971,0.98-2.561,0-3.54c-0.94-0.94-2.59-0.94-3.53,0.01c-0.978,0.977-0.969,2.56,0,3.53
		C95.017,142.166,96.601,142.179,97.58,141.2z"/>
	<path d="M103.73,173.02c0.966,0.968,2.552,0.98,3.53,0c14.397-14.397,10.668-10.668,11.9-11.899c0.981-0.982,0.966-2.566,0-3.53
		l-14.5-14.51c-0.95-0.94-2.6-0.94-3.54,0c-0.955,0.955-0.993,2.536,0,3.529l12.74,12.74l-8.36,8.37L88.28,150.5l2.23-2.23
		c0.965-0.964,0.981-2.549,0-3.529c-0.94-0.95-2.59-0.95-3.53,0l-4,4c-1,0.979-0.955,2.576,0,3.529L103.73,173.02z"/>
</g>
</svg>
