<svg version="1.0" xmlns="http://www.w3.org/2000/svg" width="1200.000000pt" height="1200.000000pt" viewBox="0 0 1200.000000 1200.000000" preserveAspectRatio="xMidYMid meet">

<g transform="translate(0.000000,1200.000000) scale(0.100000,-0.100000)" fill="#3fadb5" stroke="none">
<path d="M2930 8180 c-109 -10 -197 -31 -296 -70 -283 -112 -530 -393 -667 -760 -40 -108 -89 -299 -106 -410 -5 -41 -16 -113 -23 -160 -16 -118 -17 -611 0 -720 65 -423 215 -641 452 -657 134 -10 240 37 325 144 62 77 97 155 144 320 36 128 52 213 81 433 6 47 15 114 20 150 5 36 14 112 20 170 17 147 28 222 35 229 4 3 39 7 80 9 l74 4 9 -38 c5 -22 19 -91 31 -154 63 -327 222 -728 392 -985 207 -315 400 -476 590 -491 103 -8 203 14 290 66 75 45 214 176 243 230 17 33 17 38 3 73 -16 36 -67 77 -98 77 -8 0 -43 -24 -77 -53 -90 -79 -159 -109 -247 -110 -103 -2 -182 39 -290 147 -170 172 -324 435 -456 778 -64 170 -153 464 -143 479 2 4 39 15 82 24 203 43 305 96 413 213 102 109 145 240 135 407 -9 153 -59 267 -170 384 -146 152 -364 251 -589 266 -45 3 -102 7 -127 9 -25 2 -83 0 -130 -4z m229 -285 c112 -8 162 -20 240 -57 88 -42 148 -99 185 -178 29 -62 31 -71 30 -180 -1 -95 -5 -124 -23 -164 -63 -142 -170 -200 -432 -235 -91 -12 -202 -15 -212 -5 -11 11 35 121 93 219 70 119 77 142 56 183 -38 73 -150 66 -236 -14 -57 -53 -107 -149 -147 -282 l-28 -92 -85 6 c-73 6 -89 4 -103 -10 -26 -27 -27 -102 -1 -141 15 -23 98 -65 128 -65 30 0 30 3 -14 -370 -32 -265 -49 -363 -89 -526 -55 -220 -86 -295 -130 -309 -42 -13 -90 6 -129 50 -141 161 -198 840 -107 1278 74 355 242 643 457 780 122 78 328 134 443 121 11 -2 58 -5 104 -9z" fill="#3fadb5"/>
<path d="M9075 8093 c-499 -63 -705 -201 -827 -550 -52 -150 -39 -216 45 -230 55 -9 79 14 138 128 104 203 221 285 463 324 110 18 360 36 407 30 19 -3 173 -10 344 -15 170 -6 313 -14 317 -18 12 -12 -125 -529 -230 -867 -138 -442 -247 -734 -358 -962 -181 -371 -317 -493 -470 -424 -71 32 -104 112 -130 311 -18 141 -28 174 -59 194 -29 19 -83 20 -106 3 -51 -39 -64 -175 -34 -347 29 -164 73 -264 151 -345 63 -64 127 -95 228 -110 146 -21 228 8 342 120 86 85 159 194 251 380 121 242 206 446 286 685 81 243 247 820 372 1298 8 29 16 56 19 61 3 4 65 11 138 15 288 14 358 34 386 108 12 31 12 43 1 80 -11 34 -22 47 -54 63 -35 17 -64 20 -228 23 -180 4 -191 5 -224 28 -45 30 -122 33 -173 6 -38 -20 -5 -20 -455 7 -161 10 -475 12 -540 4z" fill="#3fadb5"/>
<path d="M6037 7996 c-64 -27 -75 -34 -160 -116 -168 -159 -310 -444 -421 -845 -62 -227 -116 -530 -116 -658 0 -38 -6 -53 -37 -89 -120 -138 -216 -208 -289 -208 -70 0 -71 29 -14 381 28 167 50 317 50 332 0 16 -10 38 -25 52 -20 21 -34 25 -82 25 -58 0 -59 1 -68 33 -12 38 -52 56 -134 56 -133 2 -272 -63 -403 -187 -177 -169 -259 -347 -260 -567 -1 -254 137 -397 354 -366 99 14 178 53 240 120 29 31 58 65 64 76 10 18 12 16 24 -20 22 -68 59 -112 113 -140 126 -62 289 -11 455 142 l52 49 20 -41 c32 -66 86 -122 148 -152 51 -25 67 -28 152 -27 139 2 254 46 380 145 l49 39 52 -55 c159 -168 441 -190 708 -57 103 52 164 94 229 158 28 29 52 49 52 44 0 -5 11 -17 24 -25 21 -14 61 -16 260 -15 l236 0 0 -22 c0 -13 -7 -50 -15 -83 -20 -85 -19 -138 4 -159 49 -45 151 -40 189 9 11 14 30 66 42 117 35 150 22 138 147 138 65 0 118 5 133 13 14 6 36 34 49 60 20 40 22 55 15 85 -13 51 -40 62 -160 62 l-101 0 64 268 c35 147 62 278 61 292 -6 50 -113 68 -176 30 -45 -28 -58 -62 -133 -347 l-64 -243 -147 0 c-82 0 -148 3 -148 6 0 4 36 117 79 253 88 271 209 661 236 759 l18 63 -23 24 c-47 50 -151 53 -194 6 -18 -19 -277 -776 -351 -1022 l-38 -126 -29 15 c-37 18 -49 12 -138 -63 -135 -113 -297 -172 -453 -163 -100 6 -155 31 -193 88 -15 22 -25 42 -22 45 2 2 60 21 129 40 211 62 351 145 415 247 28 44 54 135 54 188 0 101 -61 199 -154 248 -47 25 -60 27 -167 27 -113 0 -117 -1 -191 -37 -56 -28 -92 -56 -141 -107 -122 -130 -190 -276 -209 -450 -12 -108 -23 -126 -127 -203 -112 -84 -225 -108 -290 -61 -63 46 -91 167 -76 327 6 73 9 79 43 109 377 328 654 749 738 1117 32 141 31 211 -2 279 -39 78 -86 105 -188 109 -67 2 -91 -2 -139 -22z m93 -261 c21 -26 6 -158 -29 -254 -36 -99 -122 -263 -198 -381 -72 -111 -212 -297 -252 -335 l-31 -29 6 34 c20 113 74 316 121 455 103 299 184 448 278 506 36 23 88 25 105 4z m-1315 -1007 c-76 -318 -106 -422 -136 -475 -42 -74 -102 -139 -151 -164 -42 -21 -124 -25 -149 -6 -73 57 -75 197 -3 339 95 189 264 325 407 327 34 1 37 -1 32 -21z m1887 -19 c9 -5 22 -25 27 -45 22 -79 -56 -173 -203 -244 -82 -40 -196 -83 -203 -77 -1 2 2 30 8 63 25 137 146 289 251 315 36 8 92 3 120 -12z" fill="#3fadb5"/>
<path d="M4590 3840 c0 -5 5 -10 10 -10 6 0 10 5 10 10 0 6 -4 10 -10 10 -5 0 -10 -4 -10 -10z" fill="#3fadb5"/>
<path d="M4730 3840 c0 -5 5 -10 10 -10 6 0 10 5 10 10 0 6 -4 10 -10 10 -5 0 -10 -4 -10 -10z" fill="#3fadb5"/>
<path d="M5403 3775 c0 -44 2 -61 4 -38 3 30 10 46 24 54 29 15 47 -4 52 -54 4 -38 4 -37 3 7 -1 57 -22 79 -55 59 -18 -11 -20 -9 -24 20 -2 18 -4 -4 -4 -48z" fill="#3fadb5"/>
<path d="M6659 3828 c-16 -26 -14 -128 2 -128 5 0 9 22 9 49 0 39 4 51 18 54 16 4 16 5 0 6 -10 0 -18 5 -18 11 0 5 8 14 18 19 15 9 15 10 1 11 -9 0 -23 -10 -30 -22z" fill="#3fadb5"/>
<path d="M3681 3768 c1 -40 4 -61 6 -45 6 36 46 38 69 2 9 -14 20 -25 25 -25 5 0 2 11 -7 25 -15 22 -15 26 0 40 20 20 20 25 0 53 -11 16 -25 22 -55 22 l-39 0 1 -72z m77 50 c29 -29 8 -58 -44 -58 -21 0 -24 5 -24 35 0 32 3 35 28 35 15 0 33 -5 40 -12z" fill="#3fadb5"/>
<path d="M4200 3770 l0 -70 53 2 c50 1 50 2 10 5 l-43 4 0 65 c0 36 -4 64 -10 64 -6 0 -10 -30 -10 -70z" fill="#3fadb5"/>
<path d="M5120 3770 l0 -70 53 2 c50 1 50 2 10 5 -40 4 -43 6 -43 33 0 26 4 29 38 33 l37 4 -37 1 c-33 2 -38 5 -38 26 0 22 5 25 43 29 40 3 40 4 -10 5 l-53 2 0 -70z" fill="#3fadb5"/>
<path d="M7003 3833 c26 -4 27 -7 27 -58 0 -56 -18 -77 -46 -54 -9 8 -14 8 -14 1 0 -17 19 -24 46 -18 22 6 24 11 24 71 l0 65 -32 -1 c-31 -2 -31 -2 -5 -6z" fill="#3fadb5"/>
<path d="M7490 3770 l0 -70 45 0 c54 0 85 25 85 70 0 45 -31 70 -85 70 l-45 0 0 -70z m107 33 c29 -39 6 -81 -50 -90 l-37 -6 0 63 0 63 37 -6 c21 -4 44 -14 50 -24z" fill="#3fadb5"/>
<path d="M3939 3818 c-5 -67 12 -118 39 -118 16 1 16 1 0 11 -12 7 -18 22 -18 49 0 28 5 40 18 43 16 4 16 5 0 6 -10 0 -18 6 -18 11 0 15 -20 12 -21 -2z" fill="#3fadb5"/>
<path d="M4642 3814 c-7 -8 -8 -14 -3 -14 5 0 11 -21 13 -47 3 -41 6 -48 26 -51 12 -2 22 2 22 8 0 6 -5 8 -11 4 -16 -9 -29 15 -29 54 0 26 4 32 23 33 20 1 20 2 2 6 -11 3 -22 9 -25 13 -3 4 -11 2 -18 -6z" fill="#3fadb5"/>
<path d="M6512 3814 c-7 -8 -8 -14 -3 -14 5 0 11 -21 13 -47 3 -43 6 -48 28 -50 25 -3 25 -3 3 7 -19 7 -23 17 -23 50 0 31 4 40 18 41 13 0 14 2 2 6 -8 3 -17 9 -20 13 -3 4 -11 2 -18 -6z" fill="#3fadb5"/>
<path d="M3825 3801 c-3 -6 7 -9 22 -8 19 1 28 -3 31 -15 3 -13 -3 -18 -21 -18 -14 0 -30 -7 -37 -15 -19 -23 5 -45 46 -42 33 2 34 4 34 43 0 22 -5 45 -12 52 -14 14 -54 16 -63 3z m55 -71 c-6 -11 -20 -20 -30 -20 -13 0 -20 7 -20 20 0 16 7 20 30 20 28 0 30 -2 20 -20z" fill="#3fadb5"/>
<path d="M4023 3784 c-15 -24 -15 -29 -2 -53 16 -28 55 -40 73 -21 8 9 6 11 -12 5 -23 -7 -52 8 -52 26 0 5 18 9 40 9 33 0 40 3 40 20 0 20 -27 40 -54 40 -9 0 -23 -12 -33 -26z m65 4 c20 -20 14 -28 -23 -28 -19 0 -35 4 -35 8 0 12 22 32 35 32 6 0 16 -5 23 -12z" fill="#3fadb5"/>
<path d="M4323 3755 c0 -33 2 -45 4 -27 2 18 2 45 0 60 -2 15 -4 0 -4 -33z" fill="#3fadb5"/>
<path d="M4370 3753 c0 -29 5 -53 10 -53 6 0 10 17 10 39 0 41 20 67 45 57 10 -4 15 -19 15 -51 0 -25 5 -45 10 -45 6 0 10 17 10 39 0 41 20 67 45 57 10 -4 15 -19 15 -51 0 -25 5 -45 10 -45 13 0 13 66 0 91 -11 20 -54 26 -65 9 -4 -7 -11 -8 -18 -1 -7 5 -29 9 -49 8 l-38 -1 0 -53z" fill="#3fadb5"/>
<path d="M4590 3755 c0 -30 5 -55 10 -55 6 0 10 25 10 55 0 30 -4 55 -10 55 -5 0 -10 -25 -10 -55z" fill="#3fadb5"/>
<path d="M4730 3755 c0 -30 5 -55 10 -55 6 0 10 25 10 55 0 30 -4 55 -10 55 -5 0 -10 -25 -10 -55z" fill="#3fadb5"/>
<path d="M4793 3755 c0 -47 1 -51 4 -18 3 30 10 46 24 54 29 15 47 -4 52 -54 4 -38 4 -37 3 7 -1 57 -22 79 -55 59 -15 -10 -21 -10 -24 0 -3 7 -5 -15 -4 -48z" fill="#3fadb5"/>
<path d="M4932 3798 c-17 -17 -15 -63 3 -78 9 -7 27 -10 45 -6 33 6 35 4 19 -26 -9 -16 -17 -19 -47 -14 -33 5 -34 4 -14 -6 16 -8 32 -8 50 -2 25 9 27 14 30 79 2 38 0 66 -5 62 -4 -5 -7 -22 -8 -39 0 -38 -26 -58 -52 -42 -40 25 -20 80 25 69 15 -4 21 -2 17 5 -8 14 -48 13 -63 -2z" fill="#3fadb5"/>
<path d="M5263 3755 c0 -47 1 -51 4 -18 3 30 10 46 24 54 29 15 47 -4 52 -54 4 -38 4 -37 3 7 -1 57 -22 79 -55 59 -15 -10 -21 -10 -24 0 -3 7 -5 -15 -4 -48z" fill="#3fadb5"/>
<path d="M5540 3799 c-12 -9 -10 -10 8 -6 30 7 52 -1 52 -18 0 -8 -14 -15 -32 -17 -28 -2 -33 -7 -33 -28 0 -22 4 -25 38 -26 l37 -1 0 47 c0 34 -4 50 -16 54 -22 9 -37 7 -54 -5z m58 -61 c-7 -21 -36 -34 -49 -21 -6 6 -8 16 -5 22 10 15 59 14 54 -1z" fill="#3fadb5"/>
<path d="M5663 3755 c0 -47 1 -51 4 -18 3 30 10 46 24 54 29 15 47 -4 52 -54 4 -38 4 -37 3 7 -1 57 -22 79 -55 59 -15 -10 -21 -10 -24 0 -3 7 -5 -15 -4 -48z" fill="#3fadb5"/>
<path d="M5806 3797 c-24 -17 -24 -67 0 -84 22 -16 50 -17 60 -2 4 8 -1 9 -15 4 -27 -8 -51 10 -51 40 0 30 24 48 51 40 14 -5 19 -4 15 4 -10 15 -38 14 -60 -2z" fill="#3fadb5"/>
<path d="M5917 3792 c-22 -24 -21 -55 1 -75 21 -19 57 -22 67 -7 4 7 -2 9 -18 5 -16 -4 -30 -1 -42 12 -18 17 -17 18 28 21 50 3 60 18 31 46 -21 21 -47 20 -67 -2z m59 -9 c17 -17 17 -18 -4 -21 -12 -2 -32 -2 -44 0 -21 3 -21 4 -4 21 10 9 21 17 26 17 5 0 16 -8 26 -17z" fill="#3fadb5"/>
<path d="M6030 3753 c0 -29 5 -53 10 -53 6 0 10 17 10 39 0 41 20 67 45 57 10 -4 15 -19 15 -51 0 -25 5 -45 10 -45 6 0 10 17 10 39 0 41 20 67 45 57 10 -4 15 -19 15 -51 0 -25 5 -45 10 -45 13 0 13 66 0 91 -11 20 -54 26 -65 9 -4 -7 -11 -8 -18 -1 -7 5 -29 9 -49 8 l-38 -1 0 -53z" fill="#3fadb5"/>
<path d="M6253 3784 c-15 -24 -15 -29 -2 -53 16 -28 55 -40 73 -21 8 9 6 11 -12 5 -23 -7 -52 8 -52 26 0 5 18 9 40 9 33 0 40 3 40 20 0 20 -27 40 -54 40 -9 0 -23 -12 -33 -26z m65 4 c20 -20 14 -28 -23 -28 -19 0 -35 4 -35 8 0 12 22 32 35 32 6 0 16 -5 23 -12z" fill="#3fadb5"/>
<path d="M6370 3753 c0 -29 5 -53 10 -53 6 0 10 17 10 39 0 80 60 80 71 0 l6 -44 1 46 c2 55 -9 68 -60 66 l-38 -1 0 -53z" fill="#3fadb5"/>
<path d="M6727 3792 c-22 -24 -21 -55 1 -75 36 -32 85 -10 85 38 0 49 -54 72 -86 37z m61 -4 c24 -24 8 -78 -24 -78 -17 0 -44 28 -44 45 0 17 27 45 44 45 6 0 17 -5 24 -12z" fill="#3fadb5"/>
<path d="M6852 3750 c1 -46 2 -49 5 -15 3 26 12 46 26 57 l21 16 -27 -1 c-26 -2 -27 -4 -25 -57z" fill="#3fadb5"/>
<path d="M7090 3800 c-11 -8 -6 -9 20 -8 25 2 35 -1 38 -14 2 -12 -5 -17 -30 -20 -25 -2 -34 -8 -36 -25 -3 -23 13 -31 66 -31 19 -1 22 5 22 34 0 64 -36 93 -80 64z m58 -67 c-4 -20 -35 -30 -50 -15 -15 15 0 32 28 32 19 0 25 -5 22 -17z" fill="#3fadb5"/>
<path d="M7190 3806 c0 -15 43 -106 50 -106 9 0 52 101 45 108 -2 3 -14 -17 -26 -44 l-21 -49 -16 42 c-16 40 -32 64 -32 49z" fill="#3fadb5"/>
<path d="M7320 3799 c-12 -9 -10 -10 8 -6 30 7 52 -1 52 -18 0 -8 -14 -15 -32 -17 -28 -2 -33 -7 -33 -28 0 -22 4 -25 38 -26 l37 -1 0 47 c0 34 -4 50 -16 54 -22 9 -37 7 -54 -5z m58 -61 c-7 -21 -36 -34 -49 -21 -6 6 -8 16 -5 22 10 15 59 14 54 -1z" fill="#3fadb5"/>
<path d="M7666 3794 c-45 -45 12 -120 64 -83 12 8 10 9 -7 4 -24 -7 -63 9 -63 25 0 6 20 10 45 10 49 0 53 5 29 38 -18 26 -46 28 -68 6z m48 0 c30 -12 18 -34 -19 -34 -37 0 -43 8 -23 28 14 14 20 14 42 6z" fill="#3fadb5"/>
<path d="M7783 3755 c12 -30 26 -54 31 -52 12 4 57 107 47 107 -4 0 -16 -21 -27 -47 l-20 -48 -19 47 c-28 67 -38 60 -12 -7z" fill="#3fadb5"/>
<path d="M7893 3803 c-27 -10 -13 -41 23 -53 42 -14 40 -36 -5 -34 -17 1 -28 -2 -25 -7 3 -5 14 -9 24 -9 56 0 72 46 20 57 -17 3 -33 10 -36 15 -9 14 17 29 39 24 9 -2 17 0 17 5 0 9 -36 11 -57 2z" fill="#3fadb5"/>
</g>
</svg>